:SAMPLES-PER-SECOND 30
:FRAME-RANGE 1-3549
:FULLY-SPECIFIED
:DEGREES
1220
root  19.1041 39.6184 4.59377 -1.79712 -19.8837 1.93817
RightUpLeg  -8.8402 -4.4598 -12.472
RightLeg  24.5248 -6.14545 -3.27191
RightFoot  -7.5456 -0.516215 13.9579
RightToes  -1.11029e-010 1.2921e-014 -6.02303e-014
Spine  7.40875 1.051 0.467953
Spine1  -6.53714 1.30065 -2.37952
HEad  -9.13802 1.76781 -5.02715
LeftShoulder1  0.683938 -2.80052 -2.73165
LeftArm  -59.7312 -67.5268 -12.9963
LeftForeArm  31.1786 -42.3552 -8.13014
LeftHand  -0.126061 4.26484 11.6759
RightShoulder  0.902299 33.5499 -6.92244
RightArm  -61.3788 39.104 -7.50992
RightForeArm  20.6251 34.3166 6.46462
RightHand  -0.416889 1.63488 -7.04862
LeftUpLeg  -9.48841 9.55681 0.213743
LeftLeg  14.9962 0.294492 -1.13249
LeftFoot  -3.02561 0.182383 -2.25876
LeftToes  -1.9349e-011 -1.19469e-011 -2.02219e-012
1221
root  18.7794 39.6114 5.17562 -3.19641 -19.8083 2.21564
RightUpLeg  -4.09015 0.322579 -13.6546
RightLeg  16.4957 -5.6005 -2.14608
RightFoot  -5.90394 -0.801508 15.9318
RightToes  -1.11029e-010 1.2921e-014 -6.02303e-014
Spine  6.33558 1.13646 1.56898
Spine1  -6.79873 1.58048 -3.89815
HEad  -4.26859 1.07359 -4.61868
LeftShoulder1  0.6135 -1.88111 -3.34517
LeftArm  -61.5932 -64.0554 -11.6798
LeftForeArm  31.7246 -48.546 -10.3221
LeftHand  -0.0986694 4.48235 10.7694
RightShoulder  0.594987 31.9918 -7.77395
RightArm  -61.0024 37.36 -6.90319
RightForeArm  17.8533 37.169 7.41407
RightHand  -0.256698 0.877483 -4.86179
LeftUpLeg  -7.07507 9.10826 0.317053
LeftLeg  15.3066 0.462999 -0.710918
LeftFoot  -4.42517 0.189135 -2.68996
LeftToes  -1.9349e-011 -1.19469e-011 -2.02219e-012
1222
root  18.3635 39.5339 5.61316 -4.85669 -19.1401 2.59839
RightUpLeg  -0.153649 1.68693 -13.6434
RightLeg  13.4548 -2.40845 -2.26086
RightFoot  -7.80238 -0.544619 15.8079
RightToes  -1.11029e-010 1.2921e-014 -6.02303e-014
Spine  5.44115 1.44976 2.18796
Spine1  -7.3306 2.00515 -4.99961
HEad  1.18625 -0.164439 -3.95822
LeftShoulder1  0.528088 -1.73477 -1.85784
LeftArm  -66.7451 -61.9253 -6.6803
LeftForeArm  27.2632 -48.2087 -10.5191
LeftHand  -0.139861 3.70273 8.72503
RightShoulder  0.23335 30.6467 -8.89456
RightArm  -60.0987 35.8106 -6.39714
RightForeArm  14.6058 36.9276 7.54603
RightHand  -0.26502 1.52672 -4.59926
LeftUpLeg  -5.02738 7.88576 0.176647
LeftLeg  16.2856 0.794968 0.128323
LeftFoot  -5.89336 0.17874 -3.01294
LeftToes  -1.9349e-011 -1.19469e-011 -2.02219e-012
1223
root  17.9289 39.474 5.90204 -6.36908 -18.5233 2.50134
RightUpLeg  2.63264 0.853188 -12.7089
RightLeg  13.1867 -2.64916 -2.84609
RightFoot  -9.41197 -0.301971 14.0503
RightToes  -1.11029e-010 1.2921e-014 -6.02303e-014
Spine  4.55648 1.71827 2.92267
Spine1  -7.06761 2.35537 -5.14839
HEad  4.86241 -0.627634 -3.78824
LeftShoulder1  0.436606 -1.51156 -0.294621
LeftArm  -70.4797 -60.2938 -1.57145
LeftForeArm  26.1023 -46.2248 -9.82529
LeftHand  -0.140121 3.62708 8.37114
RightShoulder  0.124214 29.9062 -9.24693
RightArm  -59.3123 34.8169 -6.48853
RightForeArm  14.7639 37.2675 7.63431
RightHand  -0.286126 1.42826 -5.01732
LeftUpLeg  -3.20122 5.77126 0.544158
LeftLeg  17.2387 1.90532 0.94843
LeftFoot  -6.74645 0.169357 -3.21184
LeftToes  -1.9349e-011 -1.19469e-011 -2.02219e-012
1224
root  17.5423 39.5016 6.08626 -7.36493 -18.5978 2.23901
RightUpLeg  4.24405 -0.562359 -12.037
RightLeg  13.1462 -1.56874 -2.86978
RightFoot  -9.68568 -0.253073 12.8894
RightToes  -1.11029e-010 1.2921e-014 -6.02303e-014
Spine  3.18535 1.98748 4.42548
Spine1  -5.9371 2.85482 -5.78861
HEad  7.67931 -0.00842923 -3.21105
LeftShoulder1  0.349206 -1.12669 1.03152
LeftArm  -70.5155 -58.1902 2.81665
LeftForeArm  23.8416 -43.97 -9.16543
LeftHand  -0.151467 3.44819 8.32196
RightShoulder  -0.0741981 29.3372 -9.92434
RightArm  -56.0198 34.2873 -6.77985
RightForeArm  13.155 36.9234 7.63441
RightHand  -0.336886 1.40178 -5.90341
LeftUpLeg  -1.40502 4.65221 1.24583
LeftLeg  17.0073 2.81125 1.30557
LeftFoot  -6.96225 0.171667 -3.39695
LeftToes  -1.9349e-011 -1.19469e-011 -2.02219e-012
1225
root  17.154 39.5255 6.14662 -8.12891 -18.8328 2.45984
RightUpLeg  5.12675 -0.161965 -11.7536
RightLeg  13.4088 -1.71129 -2.70507
RightFoot  -10.209 -0.190326 12.1719
RightToes  -1.11029e-010 1.2921e-014 -6.02303e-014
Spine  2.12218 2.19699 5.31433
Spine1  -5.35977 3.1922 -6.83108
HEad  9.73818 0.920026 -3.16887
LeftShoulder1  0.280862 -0.691774 1.99846
LeftArm  -68.4661 -56.0928 7.51894
LeftForeArm  19.5805 -40.6527 -8.3489
LeftHand  -0.148013 3.2459 7.36013
RightShoulder  -0.748953 28.8438 -12.294
RightArm  -51.7372 34.741 -6.35953
RightForeArm  10.3886 34.5593 7.13922
RightHand  -0.377973 1.55943 -6.46905
LeftUpLeg  0.122058 5.39767 1.84658
LeftLeg  16.1597 2.25591 1.07556
LeftFoot  -6.96851 0.185571 -3.76507
LeftToes  -1.9349e-011 -1.19469e-011 -2.02219e-012
1226
root  16.7882 39.5637 6.12845 -8.58215 -18.5405 2.75226
RightUpLeg  5.96073 -0.491736 -11.4567
RightLeg  13.1257 -1.4786 -2.92388
RightFoot  -10.7374 -0.136075 11.8892
RightToes  -1.11029e-010 1.2921e-014 -6.02303e-014
Spine  0.888068 2.4187 6.01499
Spine1  -4.51604 3.58038 -7.69565
HEad  11.2201 0.980506 -2.42734
LeftShoulder1  0.171081 -0.384739 4.61992
LeftArm  -66.6507 -55.7968 10.9454
LeftForeArm  16.1857 -33.555 -6.52558
LeftHand  -0.161624 2.98844 7.28226
RightShoulder  -1.59944 28.4679 -15.3407
RightArm  -47.734 34.2555 -6.35179
RightForeArm  6.63878 31.411 6.5284
RightHand  -0.353885 1.57047 -6.05776
LeftUpLeg  1.26174 5.64955 2.27637
LeftLeg  14.9682 1.55031 0.807958
LeftFoot  -6.64872 0.215612 -4.28808
LeftToes  -1.9349e-011 -1.19469e-011 -2.02219e-012
1227
root  16.5007 39.5958 6.01926 -8.71149 -17.7145 2.79065
RightUpLeg  6.43281 -1.37072 -11.0387
RightLeg  12.954 -1.54534 -3.22855
RightFoot  -10.9794 -0.111388 11.536
RightToes  -1.11029e-010 1.2921e-014 -6.02303e-014
Spine  0.000303237 2.54933 7.03568
Spine1  -3.56006 3.89476 -8.32876
HEad  11.7808 1.13439 -2.56367
LeftShoulder1  0.0628693 -0.497741 7.85731
LeftArm  -65.4484 -55.5314 13.3947
LeftForeArm  9.69211 -23.9854 -4.6237
LeftHand  -0.13731 2.98146 6.04981
RightShoulder  -2.6176 27.7384 -19.1632
RightArm  -45.3654 33.6115 -6.60868
RightForeArm  1.40603 26.3757 5.59604
RightHand  -0.256656 1.52948 -4.45709
LeftUpLeg  1.64481 5.5694 2.70891
LeftLeg  14.2038 0.825072 0.594307
LeftFoot  -6.4172 0.240155 -4.6891
LeftToes  -1.9349e-011 -1.19469e-011 -2.02219e-012
1228
root  16.2966 39.6176 5.79703 -8.26526 -17.0212 2.82782
RightUpLeg  5.7447 -1.70563 -10.7839
RightLeg  13.3151 -2.01023 -3.10871
RightFoot  -11.0077 -0.108183 11.3561
RightToes  -1.11029e-010 1.2921e-014 -6.02303e-014
Spine  -0.270474 2.74592 8.15297
Spine1  -3.06266 4.23809 -9.09293
HEad  10.9887 1.25441 -3.20877
LeftShoulder1  -0.031474 -0.420796 10.576
LeftArm  -73.3929 -54.2053 14.976
LeftForeArm  11.1443 -14.724 -6.23275
LeftHand  -0.101235 3.43757 5.15016
RightShoulder  -3.39733 26.4939 -22.4976
RightArm  -44.9555 32.244 -7.14151
RightForeArm  -3.35806 21.6158 5.25193
RightHand  -0.161549 1.60727 -2.83288
LeftUpLeg  1.0097 4.78079 2.77769
LeftLeg  13.7495 0.937121 0.708501
LeftFoot  -5.9645 0.258228 -4.73634
LeftToes  -1.9349e-011 -1.19469e-011 -2.02219e-012
1229
root  16.1368 39.6556 5.4891 -7.36481 -16.6531 2.89197
RightUpLeg  4.28599 -1.95952 -10.4972
RightLeg  13.6484 -2.36697 -3.00247
RightFoot  -10.7853 -0.127427 11.0819
RightToes  -1.11029e-010 1.2921e-014 -6.02303e-014
Spine  -0.104003 2.9058 8.91138
Spine1  -2.73448 4.50444 -9.50769
HEad  9.48593 1.73484 -3.46
LeftShoulder1  -0.0876256 -0.401908 12.2272
LeftArm  -75.7339 -51.1773 15.2884
LeftForeArm  6.88352 -9.41557 -5.60774
LeftHand  -0.0600541 3.86168 3.17053
RightShoulder  -3.78442 24.9864 -24.7163
RightArm  -49 30.1956 -8.22315
RightForeArm  -2.42381 17.1214 6.12691
RightHand  -0.0398157 1.15392 -0.820792
LeftUpLeg  -0.0969216 4.72782 2.97709
LeftLeg  13.0178 0.65068 0.633976
LeftFoot  -5.33505 0.316424 -5.41966
LeftToes  -1.9349e-011 -1.19469e-011 -2.02219e-012
1230
root  16.0203 39.6926 5.11603 -6.04993 -16.3096 2.73712
RightUpLeg  2.28125 -2.40527 -9.96582
RightLeg  14.0284 -2.65646 -2.93582
RightFoot  -10.3664 -0.15895 10.3549
RightToes  -1.11029e-010 1.2921e-014 -6.02303e-014
Spine  0.556834 2.84952 9.46217
Spine1  -2.73318 4.51227 -9.53273
HEad  7.33437 3.00604 -3.61012
LeftShoulder1  -0.113263 -0.377404 12.9996
LeftArm  -71.9792 -47.0059 14.7602
LeftForeArm  -2.21591 -6.55895 -5.0136
LeftHand  -0.0289449 5.10212 0.788805
RightShoulder  -3.98776 23.4317 -26.4422
RightArm  -52.0177 27.4658 -8.96634
RightForeArm  -4.58998 12.8613 6.55908
RightHand  0.0811521 0.891535 1.41573
LeftUpLeg  -1.796 5.16845 3.44169
LeftLeg  12.3666 -0.104379 0.349166
LeftFoot  -4.23816 0.389005 -5.85557
LeftToes  -1.9349e-011 -1.19469e-011 -2.02219e-012
1231
root  15.9449 39.7178 4.71217 -4.43951 -15.9222 2.60785
RightUpLeg  -0.0731196 -2.55655 -9.47965
RightLeg  14.34 -3.19819 -2.88122
RightFoot  -9.86539 -0.200431 10.3154
RightToes  -1.11029e-010 1.2921e-014 -6.02303e-014
Spine  1.66291 2.67508 9.72402
Spine1  -2.88548 4.38692 -9.49126
HEad  4.6907 3.65174 -3.73336
LeftShoulder1  -0.139783 -0.529894 13.6261
LeftArm  -66.7269 -41.5785 13.2375
LeftForeArm  -8.94876 -4.92782 -5.0602
LeftHand  -0.0553501 6.60339 -1.64926
RightShoulder  -3.95718 21.375 -27.7016
RightArm  -51.4225 24.6804 -9.16538
RightForeArm  -8.57207 9.56649 6.61127
RightHand  0.19411 0.074425 4.13888
LeftUpLeg  -3.87929 5.66541 3.75679
LeftLeg  11.6208 -0.816876 0.0400383
LeftFoot  -2.89627 0.463462 -6.03943
LeftToes  -1.9349e-011 -1.19469e-011 -2.02219e-012
1232
root  15.907 39.7696 4.30126 -2.3562 -15.8331 2.50421
RightUpLeg  -2.91875 -2.90129 -9.06493
RightLeg  14.286 -3.50626 -2.73287
RightFoot  -8.94502 -0.269262 9.93582
RightToes  -1.11029e-010 1.2921e-014 -6.02303e-014
Spine  2.67963 2.57653 9.93172
Spine1  -3.14455 4.31706 -9.53263
HEad  2.39602 3.97517 -3.61368
LeftShoulder1  -0.108227 -0.42482 12.8126
LeftArm  -63.7411 -37.0078 12.1811
LeftForeArm  -14.9053 -3.7798 -4.65075
LeftHand  -0.131301 7.97321 -3.69073
RightShoulder  -3.73617 20.1274 -27.6122
RightArm  -49.7077 21.6862 -9.29031
RightForeArm  -12.6755 8.09875 6.6189
RightHand  0.324276 -0.121926 7.19906
LeftUpLeg  -6.1532 6.28851 4.02934
LeftLeg  10.2756 -1.36842 -0.374365
LeftFoot  -1.27978 0.580584 -6.50482
LeftToes  -1.9349e-011 -1.19469e-011 -2.02219e-012
1233
root  15.8975 39.82 3.88108 -0.00866699 -16.035 2.42566
RightUpLeg  -6.1342 -2.89548 -8.61665
RightLeg  14.1355 -3.92989 -2.68085
RightFoot  -7.82366 -0.35261 9.72367
RightToes  -1.11029e-010 1.2921e-014 -6.02303e-014
Spine  3.8644 2.57773 9.91094
Spine1  -3.67985 4.31351 -9.44105
HEad  -0.214952 4.92089 -3.72531
LeftShoulder1  -0.078976 -0.346907 12.0066
LeftArm  -61.8925 -32.3997 9.96944
LeftForeArm  -20.2166 -3.13358 -3.79757
LeftHand  -0.217782 8.91158 -5.27229
RightShoulder  -3.37678 19.3876 -26.4365
RightArm  -49.7998 19.2726 -9.44833
RightForeArm  -14.1109 7.14505 5.96572
RightHand  0.517841 0.873167 9.52398
LeftUpLeg  -8.47758 6.81585 4.2816
LeftLeg  8.47563 -1.3486 -0.943102
LeftFoot  0.775426 0.688007 -6.52347
LeftToes  -1.9349e-011 -1.19469e-011 -2.02219e-012
